<?xml version="1.0" encoding="UTF-8"?>
<svg version="1.1" xmlns="http://www.w3.org/2000/svg" width="1536" height="1024">
<path d="M0 0 C31.44885085 0.03635832 62.89758564 0.09308389 94.34634003 0.17792095 C98.06601666 0.18793743 101.78569373 0.19778173 105.50537109 0.20751953 C106.24583721 0.2094609 106.98630332 0.21140228 107.74920779 0.21340248 C119.71116804 0.24435482 131.67310914 0.26138418 143.63510185 0.27319422 C155.92524831 0.28564096 168.21529489 0.31322138 180.50537825 0.35461307 C188.07832721 0.37964811 195.65111037 0.39312463 203.22410131 0.39142957 C209.0482721 0.39139607 214.87222447 0.41250112 220.69631767 0.44116783 C223.07294214 0.44963611 225.44960195 0.45143784 227.82623482 0.44580269 C240.83626447 0.41908118 252.56129835 0.93685929 265 5 C265.81987144 5.26432453 266.63974289 5.52864906 267.48445892 5.80098343 C288.39166342 13.15984192 303.88911644 29.42008996 313.50390625 49.07421875 C318.0128056 59.37066054 320.46745745 69.78332257 321 81 C321.061875 82.17949219 321.061875 82.17949219 321.125 83.3828125 C321.70185767 105.23129671 314.86484625 126.18128826 300.25 142.5 C299.53328125 143.2528125 298.8165625 144.005625 298.078125 144.78125 C295.94804517 146.98469648 295.94804517 146.98469648 294.0625 149.51171875 C281.25781814 164.95979137 258.63381662 172.42833595 239.38466263 174.7827425 C234.86791981 175.19424568 230.34628403 175.15307624 225.81396484 175.15771484 C224.72028091 175.16279556 223.62659698 175.16787628 222.49977112 175.17311096 C220.13665936 175.18377031 217.77353779 175.19240768 215.41041183 175.19923019 C211.66952063 175.21106857 207.92874231 175.23053125 204.18789673 175.25234985 C193.55596084 175.31382091 182.92405419 175.36832668 172.29199219 175.40136719 C165.77933449 175.42169365 159.26685917 175.45758025 152.75432205 175.50212479 C150.27523911 175.51628657 147.79611889 175.52500762 145.31699753 175.52817917 C141.85352144 175.53308191 138.39060803 175.5562215 134.92724609 175.58349609 C133.39350594 175.57898689 133.39350594 175.57898689 131.82878113 175.5743866 C126.47197691 175.63710304 122.60918344 175.95481094 118 179 C114.08492181 183.12670404 113.1674837 185.78084092 112.75 191.3125 C113.11009039 196.62383329 114.50545491 200.37358329 118.125 204.3125 C125.54732039 208.66907936 134.1507013 208.28998766 142.51782227 208.27124023 C143.74189285 208.27646698 144.96596344 208.28169373 146.22712708 208.28707886 C148.87404142 208.29728544 151.52069682 208.30403318 154.16760445 208.30496025 C158.3692092 208.30691769 162.57065268 208.32506428 166.77220154 208.34571838 C177.2114314 208.39469014 187.65070492 208.42568218 198.09002686 208.44702148 C206.20156166 208.46363035 214.31295695 208.48669109 222.42439884 208.53004223 C225.9090883 208.54808365 229.39358815 208.56045658 232.87832832 208.55874443 C260.07771743 208.54931879 283.05949597 210.66969754 304.0703125 229.98046875 C314.19275746 240.57420163 320.7606142 252.9680346 324.703125 266.95703125 C324.92693848 267.73485962 325.15075195 268.51268799 325.38134766 269.31408691 C325.9255975 271.20804726 326.46347379 273.10383722 327 275 C299.73082589 275.07017899 272.46166538 275.12303172 245.19241905 275.15543652 C232.52994131 275.17088465 219.86751978 275.19193487 207.20507812 275.22631836 C196.16444918 275.25628362 185.12386096 275.27558992 174.08319247 275.28226548 C168.24093051 275.28616567 162.39878503 275.29528876 156.55656052 275.31719017 C151.04906799 275.33766797 145.5417391 275.34381108 140.03421211 275.33932304 C138.02116187 275.34014321 136.00810571 275.34604113 133.99508858 275.35761642 C108.97146005 275.49435729 88.28373238 269.80756685 69.8515625 251.9375 C53.02667427 234.96630839 44.75946993 212.60752818 44.74902344 188.90966797 C45.06362796 166.6061142 52.87473459 146.47390528 68.5 130.43359375 C87.32199382 112.51439905 109.62821865 105.86949008 135.04589844 105.84228516 C136.62834099 105.83466408 136.62834099 105.83466408 138.24275208 105.82688904 C140.51524804 105.81625411 142.78775403 105.80760746 145.06026459 105.80076981 C148.65849645 105.78890047 152.25661258 105.76943165 155.85479736 105.74765015 C166.07877774 105.68627292 176.30274161 105.63188902 186.52685547 105.59863281 C192.79544619 105.57770047 199.06381757 105.54242246 205.33228302 105.49787521 C207.71646804 105.48371944 210.10069176 105.47499374 212.48491669 105.47182083 C215.81407226 105.46691724 219.14264285 105.44377706 222.47167969 105.41650391 C223.94460228 105.42101311 223.94460228 105.42101311 225.44728088 105.4256134 C230.70922859 105.36153589 234.47033863 104.98399045 239 102 C243.07651 97.37261028 244.07341949 93.00990988 244 87 C243.31666308 82.44442054 242.50538102 80.52888711 239.3125 77.1875 C233.68019556 73.46805367 228.3275834 72.75039144 221.67121887 72.74171448 C220.96725013 72.73803877 220.26328139 72.73436307 219.53798026 72.73057598 C217.19687568 72.72065629 214.85601145 72.72473471 212.51489258 72.72875977 C210.82891591 72.72436911 209.14294141 72.71906571 207.45697021 72.71292114 C203.8338927 72.70144444 200.21087348 72.69596342 196.58777809 72.69503975 C190.85002489 72.69309347 185.11239155 72.67500848 179.37467957 72.65428162 C165.12054743 72.60516488 150.86638275 72.5742503 136.61218262 72.55297852 C125.53708808 72.53642431 114.46209653 72.51351766 103.38707083 72.46995777 C97.69271459 72.44826943 91.99855442 72.44011537 86.30415976 72.44235051 C82.74827866 72.44067426 79.19252369 72.42656736 75.63668823 72.40913773 C73.99853629 72.40357632 72.36035778 72.40301748 70.72220421 72.40807533 C58.34382491 72.44226132 47.07904119 71.16030977 35.9375 65.375 C35.26412598 65.03090088 34.59075195 64.68680176 33.89697266 64.33227539 C17.85508375 55.82973027 6.25158477 41.86106613 0.616745 24.6010437 C-0.49668703 19.90528554 -0.31134582 15.2357316 -0.1875 10.4375 C-0.17396484 9.42880859 -0.16042969 8.42011719 -0.14648438 7.38085938 C-0.11149576 4.91999379 -0.06241158 2.46029665 0 0 Z " fill="#8759FE" transform="translate(0,350)"/>
<path d="M0 0 C39.6 0 79.2 0 120 0 C122.28354068 15.98478474 122.51527079 26.2815758 112.78466797 39.50732422 C109.50318903 44.09062107 106.5033467 48.86379278 103.44372559 53.59664917 C97.78078485 62.3295014 92.01358046 70.99489248 86.23046875 79.6484375 C85.74689911 80.37227127 85.26332947 81.09610504 84.7651062 81.84187317 C82.42646176 85.34118417 80.08465142 88.83830769 77.73730469 92.33178711 C72.85847556 99.60858223 68.11696984 106.95180197 63.5002594 114.39781189 C59.74694485 120.44141477 55.79789637 126.33840066 51.77734375 132.20703125 C51.28105469 132.94050781 50.78476562 133.67398438 50.2734375 134.4296875 C49.83435059 135.07147949 49.39526367 135.71327148 48.94287109 136.37451172 C47.83274897 137.97514471 47.83274897 137.97514471 48 140 C72.09 140.33 96.18 140.66 121 141 C122.38308781 143.76617563 122.11210196 146.01018 122.09765625 149.1015625 C122.09282227 150.91914062 122.09282227 150.91914062 122.08789062 152.7734375 C122.07532227 154.67996094 122.07532227 154.67996094 122.0625 156.625 C122.05798828 157.90375 122.05347656 159.1825 122.04882812 160.5 C122.03701203 163.66671292 122.02053815 166.83333356 122 170 C118.60740202 170.76310634 115.47640219 171.1254415 112.00164795 171.12698364 C111.02017792 171.12980347 110.03870789 171.13262329 109.02749634 171.13552856 C107.96235809 171.13350433 106.89721985 171.1314801 105.79980469 171.12939453 C104.66926666 171.13114685 103.53872864 171.13289917 102.37393188 171.13470459 C98.63989728 171.13910349 94.90591008 171.13619277 91.171875 171.1328125 C88.58066804 171.13348591 85.98946114 171.13445625 83.39825439 171.13571167 C77.97122538 171.13718583 72.5442142 171.13513771 67.1171875 171.13037109 C60.83630433 171.12491836 54.55545357 171.12670024 48.27457118 171.1321975 C42.23414202 171.13727318 36.19372877 171.13674798 30.15329742 171.13381577 C27.58074184 171.1331465 25.00818543 171.13397489 22.4356308 171.13629532 C18.85127022 171.13881963 15.26697302 171.1349849 11.68261719 171.12939453 C10.07276443 171.13243088 10.07276443 171.13243088 8.4303894 171.13552856 C6.9751033 171.13129883 6.9751033 171.13129883 5.49041748 171.12698364 C4.64240948 171.12660662 3.79440147 171.12622959 2.92069626 171.12584114 C1 171 1 171 0 170 C-2.16175258 156.13730356 -0.26089883 145.72064003 7.796875 134.36328125 C8.32603516 133.6460791 8.85519531 132.92887695 9.40039062 132.18994141 C11.5391276 129.26190865 13.51760209 126.23936856 15.5065918 123.20849609 C17.00049839 120.9367421 18.51495957 118.68000947 20.03515625 116.42578125 C22.8834427 112.18903626 25.67115936 107.91558932 28.4375 103.625 C29.11111572 102.58061768 29.11111572 102.58061768 29.79833984 101.51513672 C30.72329022 100.08066033 31.64809283 98.64608866 32.57275391 97.21142578 C35.08216637 93.323253 37.60323758 89.44267036 40.125 85.5625 C40.65641602 84.74442871 41.18783203 83.92635742 41.73535156 83.08349609 C44.89781232 78.2193832 48.07144877 73.3627737 51.25390625 68.51171875 C58.96601267 56.75361652 66.6349157 44.97957201 74 33 C73.15057327 33.16233124 72.30114655 33.32466248 71.42597961 33.49191284 C67.95471803 34.00671551 64.69198545 34.12701728 61.18432617 34.12939453 C60.20518753 34.13202301 60.20518753 34.13202301 59.20626831 34.13470459 C57.06847403 34.13907363 54.93076373 34.13620441 52.79296875 34.1328125 C51.30178308 34.13348655 49.81059752 34.13445743 48.31941223 34.13571167 C45.20519965 34.13718158 42.09101586 34.13505533 38.97680664 34.13037109 C34.97731606 34.12464936 30.97789223 34.12797263 26.97840405 34.13394356 C23.90474438 34.13754716 20.8311007 34.13641195 17.75744057 34.13381577 C16.28178207 34.13314722 14.80612214 34.13397241 13.33046532 34.13629532 C11.27650437 34.13882122 9.22265384 34.13498334 7.16870117 34.12939453 C5.99877121 34.12859894 4.82884125 34.12780334 3.62345886 34.12698364 C1 34 1 34 0 33 C0 22.11 0 11.22 0 0 Z " fill="#924DFE" transform="translate(388,400)"/>
<path d="M0 0 C1.47328241 0.02013968 2.94659209 0.03837697 4.41992188 0.0546875 C7.96803143 0.09799161 11.51507909 0.16658412 15.0625 0.25 C15.0625 0.91 15.0625 1.57 15.0625 2.25 C16.22394531 2.34410156 17.38539062 2.43820312 18.58203125 2.53515625 C23.12059661 3.11083271 26.71351483 4.59389154 30.75 6.6875 C31.43698975 7.03949463 32.12397949 7.39148926 32.83178711 7.75415039 C42.63467747 12.95284158 53.8736159 20.1005427 59.0625 30.25 C57.70069728 34.33540817 54.87738077 35.99263412 51.5625 38.5 C50.93263184 38.98509033 50.30276367 39.47018066 49.65380859 39.9699707 C48.38689448 40.94515479 47.11787068 41.91760463 45.84667969 42.88720703 C43.44690037 44.7202076 41.06722712 46.57857578 38.6875 48.4375 C37.47946018 49.37537819 36.27126045 50.31305076 35.0625 51.25 C32.01754429 49.91126947 30.22673179 48.502393 28.0625 46 C19.76630215 37.50880604 8.83003328 34.52481387 -2.69140625 34.1171875 C-14.26432064 34.15238065 -24.25945272 37.56806257 -32.9375 45.5625 C-45.07404906 59.38043495 -48.01005141 77.38647136 -46.9375 95.25 C-45.49556296 108.41263627 -41.18738254 121.46885608 -31.109375 130.5703125 C-20.34847325 138.89259263 -9.38464536 141.94820031 4.21875 141.0390625 C13.81129128 139.72874114 21.51403169 136.41238722 28.0625 129.25 C28.7225 129.25 29.3825 129.25 30.0625 129.25 C30.35125 128.63125 30.64 128.0125 30.9375 127.375 C32.0625 125.25 32.0625 125.25 34.0625 123.25 C38.02602654 123.55640524 40.34876401 124.89990032 43.41796875 127.33984375 C44.20494141 127.95923828 44.99191406 128.57863281 45.80273438 129.21679688 C46.61033203 129.86712891 47.41792969 130.51746094 48.25 131.1875 C49.06919922 131.83396484 49.88839844 132.48042969 50.73242188 133.14648438 C56.64620536 137.83370536 56.64620536 137.83370536 59.0625 140.25 C58.49864198 146.68623299 52.14024205 152.33104474 47.66015625 156.46875 C45.18859351 158.4991017 42.67020069 160.39821254 40.0625 162.25 C39.30453125 162.79527344 38.5465625 163.34054687 37.765625 163.90234375 C20.61317558 175.21259983 -3.10538886 177.01569264 -22.88134766 173.22436523 C-42.12346507 168.78510685 -59.20805298 157.53325602 -70.1015625 140.95703125 C-84.06529471 117.93932231 -88.21073793 91.00754063 -82.25 64.75 C-76.85878742 42.73317677 -65.51775824 23.49720964 -45.9375 11.25 C-30.96787508 2.5459018 -17.07141875 -0.41404196 0 0 Z " fill="#34BBFE" transform="translate(1072.9375,399.75)"/>
<path d="M0 0 C13.23704142 10.04302894 22.45730249 24.14528783 24.9375 40.75 C27.42847272 60.12892339 24.00906181 79.00342644 11.9375 94.75 C1.95420211 106.5295352 -11.054132 113.47666419 -26.0625 116.75 C-43.86978365 118.11660549 -59.38605792 115.72072861 -73.89453125 104.57421875 C-87.99416198 92.33480917 -95.17714036 76.95960511 -96.875 58.4375 C-97.79738552 39.643895 -93.05306721 22.7597763 -80.6875 8.5 C-60.56009465 -12.93568669 -24.49461763 -16.6161276 0 0 Z M-58.1875 31.3125 C-64.56002306 42.99545894 -64.48054815 56.49960143 -60.99609375 69.0703125 C-59.74908863 72.64958242 -58.14539383 75.58974729 -56.0625 78.75 C-55.4025 78.75 -54.7425 78.75 -54.0625 78.75 C-54.0625 79.41 -54.0625 80.07 -54.0625 80.75 C-47.31430959 86.14855233 -39.59890851 87.6791329 -31.0625 86.75 C-23.49760749 85.14684397 -18.82824293 82.06889151 -13.875 76.125 C-7.75137375 64.7223856 -7.30596995 51.1873142 -10.5625 38.8125 C-13.1851828 31.32576365 -17.5446662 25.95726826 -24.25 21.75 C-38.06914155 16.83652745 -48.95229503 20.1759293 -58.1875 31.3125 Z " fill="#4388FE" transform="translate(952.0625,457.25)"/>
<path d="M0 0 C0 0.66 0 1.32 0 2 C0.59941406 2.26167969 1.19882813 2.52335937 1.81640625 2.79296875 C9.52691117 7.05512621 12.54220245 17.10763017 15 25 C15.96923951 29.74283679 16.16806419 34.38450443 16.20532227 39.20849609 C16.21522186 40.00916504 16.22512146 40.80983398 16.23532104 41.63476562 C16.26674609 44.2642935 16.29161784 46.8938394 16.31640625 49.5234375 C16.33699221 51.35332695 16.3579891 53.18321182 16.37937927 55.01309204 C16.43443042 59.81671426 16.48391412 64.62037818 16.53222656 69.42407227 C16.58256579 74.33092944 16.63818687 79.23772646 16.69335938 84.14453125 C16.80073339 93.76296937 16.90222401 103.38145985 17 113 C13.28057756 113.78792706 9.88596081 114.12858023 6.078125 114.1328125 C4.97082031 114.13410156 3.86351562 114.13539063 2.72265625 114.13671875 C1.57667969 114.13285156 0.43070313 114.12898437 -0.75 114.125 C-1.91144531 114.12886719 -3.07289062 114.13273438 -4.26953125 114.13671875 C-5.37167969 114.13542969 -6.47382812 114.13414062 -7.609375 114.1328125 C-8.61967773 114.13168457 -9.62998047 114.13055664 -10.67089844 114.12939453 C-13 114 -13 114 -14 113 C-14.39454223 111.15400312 -14.74176866 109.29774178 -15.0625 107.4375 C-15.32740234 105.91962891 -15.32740234 105.91962891 -15.59765625 104.37109375 C-15.73042969 103.58863281 -15.86320312 102.80617188 -16 102 C-16.34289063 102.42410156 -16.68578125 102.84820313 -17.0390625 103.28515625 C-22.81458184 109.75772102 -33.22068558 116.4225117 -42.07788086 117.17700195 C-56.67372049 117.5517136 -69.72569041 117.54122668 -81 107 C-89.1048776 98.98936516 -92.35413947 90.37505385 -93 79 C-92.49570516 68.5649761 -88.95319089 58.74709685 -81.125 51.59375 C-67.34169236 41.25626927 -51.12608029 40.54925167 -34.625 40.3125 C-33.00257843 40.27922705 -31.38018151 40.24472872 -29.7578125 40.20898438 C-25.83868113 40.12524575 -21.91959452 40.05791401 -18 40 C-18.28484846 38.26969709 -18.57819938 36.54079286 -18.875 34.8125 C-19.03742188 33.84957031 -19.19984375 32.88664062 -19.3671875 31.89453125 C-20.39634798 26.60976923 -20.39634798 26.60976923 -23.8125 22.8125 C-24.534375 22.544375 -25.25625 22.27625 -26 22 C-26.76441406 21.66871094 -27.52882813 21.33742188 -28.31640625 20.99609375 C-36.15756034 18.08562171 -45.11220882 18.43296737 -53 21 C-58.43780258 23.80333922 -62.89519683 27.49795781 -67 32 C-70.02467811 30.62818803 -72.28886209 29.03464311 -74.75 26.8125 C-75.43578125 26.19890625 -76.1215625 25.5853125 -76.828125 24.953125 C-77.54484375 24.30859375 -78.2615625 23.6640625 -79 23 C-80.4981045 21.68533687 -81.99802207 20.37273607 -83.5 19.0625 C-84.66666667 18.04166667 -85.83333333 17.02083333 -87 16 C-81.22668707 3.5417984 -69.34684491 -2.4388234 -57.04296875 -7.0546875 C-38.09087099 -12.94224547 -17.1862261 -8.82150144 0 0 Z M-58.625 68.0625 C-61.41952892 71.7911774 -61.69525191 75.13372133 -61.390625 79.703125 C-60.67454798 83.91365787 -58.77773608 86.09682262 -56.0625 89.25 C-49.37269185 93.07274751 -40.73221509 92.62583698 -33.38671875 90.8515625 C-27.67536576 88.81379662 -22.68792387 85.68954724 -19.5 80.4375 C-17.40572985 75.6381309 -16.96760098 72.01939653 -16.984375 66.83203125 C-16.98663086 65.92815674 -16.98888672 65.02428223 -16.99121094 64.09301758 C-16.99411133 63.40232178 -16.99701172 62.71162598 -17 62 C-21.45820633 61.91199127 -25.91618539 61.85927078 -30.375 61.8125 C-31.62667969 61.78736328 -32.87835937 61.76222656 -34.16796875 61.73632812 C-43.00252306 61.66694681 -51.87817093 61.67965391 -58.625 68.0625 Z " fill="#33BBFE" transform="translate(1233,457)"/>
<path d="M0 0 C10.74876134 7.07573787 17.07201644 16.04913596 20.0168457 28.63525391 C21.85512342 37.61203906 21.76848569 46.44467556 21.68359375 55.57421875 C21.67798377 57.37024579 21.67372032 59.16627748 21.67073059 60.96231079 C21.65939199 65.64104361 21.63002232 70.31948757 21.59661865 74.99810791 C21.56567797 79.79166763 21.55217448 84.585275 21.53710938 89.37890625 C21.5051397 98.74882335 21.45407998 108.11852809 21.390625 117.48828125 C17.93971517 118.63858453 15.24422688 118.61775259 11.60546875 118.62109375 C10.94857559 118.62205048 10.29168243 118.6230072 9.61488342 118.62399292 C8.22885034 118.62467238 6.84281405 118.62283439 5.45678711 118.61865234 C3.33244717 118.61329216 1.20831783 118.61860955 -0.91601562 118.625 C-2.2630213 118.62433934 -3.61002685 118.62305844 -4.95703125 118.62109375 C-6.18429932 118.61996582 -7.41156738 118.61883789 -8.67602539 118.61767578 C-11.609375 118.48828125 -11.609375 118.48828125 -13.609375 117.48828125 C-13.609375 116.82828125 -13.609375 116.16828125 -13.609375 115.48828125 C-12.949375 115.48828125 -12.289375 115.48828125 -11.609375 115.48828125 C-11.67081213 106.14277017 -11.74807905 96.79755865 -11.84508991 87.45234871 C-11.88965743 83.11213188 -11.92894284 78.77200598 -11.95581055 74.43164062 C-11.98198034 70.23634972 -12.02247735 66.04141131 -12.07256126 61.84634018 C-12.08913811 60.25256641 -12.10070919 58.65873179 -12.10698891 57.06488419 C-11.88740505 42.34521092 -11.88740505 42.34521092 -18.109375 29.48828125 C-23.00801079 26.07260716 -29.26052787 25.23188514 -35.109375 25.6796875 C-41.33234366 26.84649412 -45.79932054 29.27599246 -49.859375 34.23828125 C-53.13931092 40.32959081 -53.85699489 46.2597903 -53.92822266 53.09765625 C-53.94329109 54.16742455 -53.94329109 54.16742455 -53.95866394 55.25880432 C-53.98923044 57.5852894 -54.00645609 59.91166088 -54.0234375 62.23828125 C-54.04217059 63.86353515 -54.06174557 65.48877955 -54.0821228 67.11401367 C-54.13322406 71.36849333 -54.17296681 75.62300445 -54.21026611 79.87762451 C-54.25044455 84.2283899 -54.30147342 88.57902692 -54.3515625 92.9296875 C-54.44806086 101.44913072 -54.53254819 109.96863802 -54.609375 118.48828125 C-59.29076754 118.51293413 -63.97212259 118.53111864 -68.65356445 118.54321289 C-70.24732114 118.54825282 -71.84107319 118.55508475 -73.43481445 118.5637207 C-75.72087753 118.57580124 -78.00687967 118.5815128 -80.29296875 118.5859375 C-81.00964218 118.59109879 -81.72631561 118.59626007 -82.46470642 118.60157776 C-84.18001172 118.60177388 -85.89518766 118.55020132 -87.609375 118.48828125 C-89.22923679 116.86841946 -88.73539429 115.09595731 -88.73635864 112.85705566 C-88.73917847 111.85584183 -88.74199829 110.85462799 -88.74490356 109.82307434 C-88.74287933 108.71550278 -88.7408551 107.60793121 -88.73876953 106.46679688 C-88.74052185 105.30758224 -88.74227417 104.14836761 -88.74407959 102.95402527 C-88.74850095 99.10084562 -88.74555911 95.24771142 -88.7421875 91.39453125 C-88.74286046 88.73034609 -88.7438287 86.06616234 -88.74508667 83.40197754 C-88.74690822 77.80980939 -88.74450245 72.21765443 -88.73974609 66.62548828 C-88.7343035 60.15155623 -88.73606617 53.67765567 -88.7415725 47.20372438 C-88.74610406 41.6546872 -88.74675397 36.10565951 -88.74413383 30.55662107 C-88.74257129 27.23832817 -88.74276674 23.92005339 -88.74567032 20.60176086 C-88.74819517 16.90440711 -88.74435861 13.20711478 -88.73876953 9.50976562 C-88.74079376 8.40219406 -88.74281799 7.2946225 -88.74490356 6.15348816 C-88.74208374 5.15227432 -88.73926392 4.15106049 -88.73635864 3.11950684 C-88.73598162 2.24418053 -88.73560459 1.36885422 -88.73521614 0.46700287 C-88.609375 -1.51171875 -88.609375 -1.51171875 -87.609375 -2.51171875 C-85.31786083 -2.5996285 -83.02364976 -2.61865913 -80.73046875 -2.609375 C-79.70047508 -2.60725258 -79.70047508 -2.60725258 -78.64967346 -2.60508728 C-76.44869699 -2.59947354 -74.24782091 -2.58691882 -72.046875 -2.57421875 C-70.55794417 -2.56920551 -69.06901176 -2.5646423 -67.58007812 -2.56054688 C-63.92314425 -2.54949968 -60.26626942 -2.53222588 -56.609375 -2.51171875 C-56.54878906 -1.58488281 -56.48820313 -0.65804688 -56.42578125 0.296875 C-56.34199219 1.49441406 -56.25820313 2.69195312 -56.171875 3.92578125 C-56.09066406 5.12074219 -56.00945313 6.31570313 -55.92578125 7.546875 C-55.93281386 10.37398369 -55.93281386 10.37398369 -54.609375 11.48828125 C-54.22007812 10.98039062 -53.83078125 10.4725 -53.4296875 9.94921875 C-40.91017182 -5.45497797 -17.46207138 -10.11649944 0 0 Z " fill="#7C56FE" transform="translate(733.609375,452.51171875)"/>
<path d="M0 0 C13.04537014 11.37653964 18.41190944 27.25333738 19.60205078 44.07714844 C19.93951595 49.60355818 20.09896985 54.50515077 19 60 C-7.07 60 -33.14 60 -60 60 C-58.22542689 68.87286555 -56.87958822 74.2225062 -50.625 80.3125 C-42.59575225 85.47415927 -34.32385756 86.91797052 -24.875 85.375 C-18.46881494 83.85747763 -12.66012725 81.02034507 -8.1875 76.125 C-7.465625 75.42375 -6.74375 74.7225 -6 74 C-2.7278261 74.32245108 -0.98880762 75.61142273 1.34765625 77.8359375 C1.95287109 78.40570312 2.55808594 78.97546875 3.18164062 79.5625 C3.80232422 80.160625 4.42300781 80.75875 5.0625 81.375 C5.68705078 81.96539063 6.31160156 82.55578125 6.95507812 83.1640625 C9.67363759 85.7404561 12.35873586 88.34434069 15 91 C6.95698688 103.2933859 -5.17852698 111.29442634 -19.4765625 114.4921875 C-36.45817598 116.93964842 -53.58158139 114.91266279 -68 105 C-82.14490985 93.91844998 -90.4319861 79.81250533 -93 62 C-94.80939108 43.1290033 -91.33408136 24.64785374 -79.8984375 9.15234375 C-59.75261181 -14.44603511 -25.02549126 -18.21631131 0 0 Z M-54.9375 23.8125 C-58.16199607 28.79581211 -60 33.0325554 -60 39 C-43.83 39 -27.66 39 -11 39 C-12.90982207 30.4058007 -14.30440145 25.60083962 -20.4375 19.625 C-31.26602955 12.7581276 -46.18407014 14.3317822 -54.9375 23.8125 Z " fill="#8E4EFE" transform="translate(611,459)"/>
<path d="M0 0 C-0.65361328 3.49064824 -2.06025626 5.98914589 -3.94140625 8.984375 C-4.81635742 10.38623047 -4.81635742 10.38623047 -5.70898438 11.81640625 C-6.32064453 12.78449219 -6.93230469 13.75257813 -7.5625 14.75 C-8.48579102 16.22533203 -8.48579102 16.22533203 -9.42773438 17.73046875 C-10.94706555 20.15668753 -12.47129417 22.57968116 -14 25 C-14.87140625 24.45730469 -15.7428125 23.91460937 -16.640625 23.35546875 C-26.53366935 17.35002597 -37.06314721 12.28164307 -49 14 C-52.7976336 15.0882108 -56.83211884 16.55689463 -59 20 C-59.58345476 22.95746492 -59.58345476 22.95746492 -59 26 C-55.7855851 30.23941965 -51.9664176 31.32844504 -47.0625 32.75 C-46.35931641 32.97042969 -45.65613281 33.19085938 -44.93164062 33.41796875 C-41.15359739 34.55810926 -37.91680592 35.02802723 -34 35 C-32.515 35.99 -32.515 35.99 -31 37 C-28.94856217 37.79980818 -26.88424351 38.56686664 -24.8125 39.3125 C-19.42337107 41.35065777 -14.64337582 43.58874803 -10 47 C-9.16984375 47.58910156 -8.3396875 48.17820312 -7.484375 48.78515625 C-4.6797081 51.28554325 -3.37987426 53.50373377 -1.75 56.875 C-0.99976563 58.38707031 -0.99976563 58.38707031 -0.234375 59.9296875 C3.42146749 69.02301723 2.8777858 79.14934178 -0.8828125 88.1015625 C-6.07407913 99.01548527 -15.11821316 105.94536942 -26.3203125 110.2109375 C-45.48258426 115.85347233 -65.58268002 114.14948644 -83.234375 104.6484375 C-94.85 97.725 -94.85 97.725 -98 93 C-97.505 92.01 -97.505 92.01 -97 91 C-96.34 91 -95.68 91 -95 91 C-94.67708984 90.21496094 -94.67708984 90.21496094 -94.34765625 89.4140625 C-92.45963604 86.03204369 -89.9754736 83.2866829 -87.4375 80.375 C-83.85426322 76.44179069 -83.85426322 76.44179069 -81 72 C-79.35 72.66 -77.7 73.32 -76 74 C-76 74.66 -76 75.32 -76 76 C-75.27296875 76.2784375 -74.5459375 76.556875 -73.796875 76.84375 C-71.1770626 77.92680093 -68.7465816 79.1619628 -66.25 80.5 C-57.10576653 85.07887023 -46.45666511 87.02786341 -36.5 83.8125 C-32.72801927 81.85915284 -31.36322609 80.99879653 -30 77 C-30.01737965 72.21594258 -30.01737965 72.21594258 -32.60717773 68.4309082 C-35.66467967 66.60252142 -38.81703804 65.67260259 -42.22265625 64.73046875 C-43.66347374 64.31206336 -45.10422683 63.89343618 -46.54492188 63.47460938 C-48.79231027 62.83204587 -51.04075961 62.19361932 -53.29077148 61.56030273 C-66.46459924 57.831531 -78.99726755 53.95702377 -87 42 C-91.18602474 33.99556176 -92.40241823 25.99139623 -90.33984375 17.1796875 C-86.37714395 4.86272448 -78.20629532 -2.84653049 -67 -8.75 C-45.59531218 -19.59697018 -18.85770911 -12.57180607 0 0 Z " fill="#34BBFE" transform="translate(1442,461)"/>
<path d="M0 0 C0.66 0.33 1.32 0.66 2 1 C2 11.56 2 22.12 2 33 C17.345 32.505 17.345 32.505 33 32 C33 41.9 33 51.8 33 62 C22.77 61.67 12.54 61.34 2 61 C2.09714306 68.11700749 2.20000689 75.23346104 2.31738281 82.35009766 C2.35556737 84.76899235 2.39043826 87.18794179 2.421875 89.60693359 C2.46775422 93.09232086 2.52571129 96.57733466 2.5859375 100.0625 C2.59748871 101.13677246 2.60903992 102.21104492 2.62094116 103.31787109 C2.75826893 110.37065774 2.91478716 116.93734364 7 122.9375 C11.19995207 125.82496705 14.94822845 126.42263187 20 126 C23.37217836 125.11532556 26.68783124 124.08640752 30 123 C30.84191873 126.72728171 31.6720168 130.45710003 32.5 134.1875 C32.73847656 135.24259766 32.97695313 136.29769531 33.22265625 137.38476562 C33.56103516 138.91713867 33.56103516 138.91713867 33.90625 140.48046875 C34.11572266 141.41785889 34.32519531 142.35524902 34.54101562 143.32104492 C34.98967088 145.93971199 35.08407959 148.34939083 35 151 C33.10667466 151.81832722 31.21022267 152.62942268 29.3125 153.4375 C28.25675781 153.88996094 27.20101562 154.34242188 26.11328125 154.80859375 C15.30866494 158.94335909 1.22034669 158.46329255 -9.453125 154.26171875 C-19.13498289 149.46533823 -25.43490005 142.47574923 -29.23828125 132.4296875 C-30.70705059 127.7446899 -31.12320507 123.46496894 -31.11352539 118.55737305 C-31.11344986 117.27642258 -31.11337433 115.99547211 -31.11329651 114.67570496 C-31.10819065 113.28770915 -31.10297467 111.89971375 -31.09765625 110.51171875 C-31.09578975 109.08396962 -31.09436694 107.65621985 -31.09336853 106.22846985 C-31.08956165 102.48186455 -31.07974707 98.7352984 -31.06866455 94.9887085 C-31.05841102 91.16109751 -31.05386248 87.33348016 -31.04882812 83.50585938 C-31.03812307 76.00388639 -31.02054118 68.50195368 -31 61 C-40.405 61.495 -40.405 61.495 -50 62 C-50 52.43 -50 42.86 -50 33 C-44.06 32.67 -38.12 32.34 -32 32 C-32 22.1 -32 12.2 -32 2 C-27.79847627 1.15969525 -24.8058773 0.9419294 -20.60546875 1.12109375 C-18.80239258 1.19360352 -18.80239258 1.19360352 -16.96289062 1.26757812 C-15.09407227 1.35168945 -15.09407227 1.35168945 -13.1875 1.4375 C-11.92228516 1.48970703 -10.65707031 1.54191406 -9.35351562 1.59570312 C-6.23541194 1.72513384 -3.11764822 1.86009129 0 2 C0 1.34 0 0.68 0 0 Z " fill="#5D69FE" transform="translate(816,417)"/>
<path d="M0 0 C0.495 0.495 0.495 0.495 1 1 C0.48386273 7.96431796 -0.87996822 14.63975925 -2.4375 21.4375 C-2.65470703 22.42943359 -2.87191406 23.42136719 -3.09570312 24.44335938 C-3.31033203 25.38888672 -3.52496094 26.33441406 -3.74609375 27.30859375 C-3.93872803 28.16251709 -4.1313623 29.01644043 -4.32983398 29.89624023 C-5 32 -5 32 -7 34 C-8.02673828 33.51660156 -8.02673828 33.51660156 -9.07421875 33.0234375 C-15.67920626 30.71301463 -24.22203182 30.70909484 -30.625 33.6875 C-36.00040449 36.98838804 -38.42896623 41.11664746 -40.35806274 47.09542847 C-41.74026675 53.3494827 -41.48556825 59.81361813 -41.51171875 66.19140625 C-41.52859054 67.74797458 -41.54674409 69.3045295 -41.56611633 70.86106873 C-41.61335155 74.92977708 -41.64333123 78.99843101 -41.66955566 83.06732178 C-41.69949587 87.23053733 -41.74597947 91.39356585 -41.79101562 95.55664062 C-41.87674692 103.7043346 -41.94422522 111.85204612 -42 120 C-45.95767323 120.84672666 -49.55800886 121.11617348 -53.61328125 121.09765625 C-55.4840332 121.09282227 -55.4840332 121.09282227 -57.39257812 121.08789062 C-58.68615234 121.07951172 -59.97972656 121.07113281 -61.3125 121.0625 C-63.28186523 121.05573242 -63.28186523 121.05573242 -65.29101562 121.04882812 C-68.5273901 121.03705949 -71.76367178 121.0206176 -75 121 C-75.97154596 118.08536213 -76.12565237 116.23637048 -76.12698364 113.20419312 C-76.12980347 112.21705826 -76.13262329 111.2299234 -76.13552856 110.21287537 C-76.13350433 109.13119583 -76.1314801 108.0495163 -76.12939453 106.93505859 C-76.13114685 105.79505905 -76.13289917 104.65505951 -76.13470459 103.48051453 C-76.1391148 99.70314015 -76.13618839 95.92581238 -76.1328125 92.1484375 C-76.13348568 89.53195181 -76.13445583 86.91546619 -76.13571167 84.29898071 C-76.13753107 78.81292208 -76.13513253 73.3268769 -76.13037109 67.84082031 C-76.12492349 61.49067845 -76.12669566 55.14056866 -76.1321975 48.79042757 C-76.13727373 42.68806619 -76.13674754 36.58571908 -76.13381577 30.48335648 C-76.13314636 27.88289002 -76.13397539 25.28242275 -76.13629532 22.68195724 C-76.13881992 19.0566665 -76.13498423 15.4314384 -76.12939453 11.80615234 C-76.13141876 10.72042435 -76.13344299 9.63469635 -76.13552856 8.5160675 C-76.13270874 7.5345723 -76.12988892 6.55307709 -76.12698364 5.5418396 C-76.12660662 4.68385962 -76.12622959 3.82587963 -76.12584114 2.94190025 C-76 1 -76 1 -75 0 C-72.79349344 -0.10012401 -70.58377614 -0.1308118 -68.375 -0.1328125 C-67.71290527 -0.13376923 -67.05081055 -0.13472595 -66.36865234 -0.13571167 C-64.96647039 -0.13639326 -63.5642853 -0.13454042 -62.16210938 -0.13037109 C-60.00904287 -0.12502246 -57.85618498 -0.1303167 -55.703125 -0.13671875 C-54.34374954 -0.13605796 -52.9843742 -0.13477679 -51.625 -0.1328125 C-49.75714844 -0.13112061 -49.75714844 -0.13112061 -47.8515625 -0.12939453 C-45 0 -45 0 -44 1 C-43.76472227 3.34987262 -43.58613583 5.70556039 -43.4375 8.0625 C-43.35371094 9.35285156 -43.26992187 10.64320313 -43.18359375 11.97265625 C-43.12300781 12.97167969 -43.06242187 13.97070312 -43 15 C-42.443125 14.33613281 -41.88625 13.67226563 -41.3125 12.98828125 C-29.84905201 -0.27601245 -17.37991143 -5.10954478 0 0 Z " fill="#33BAFE" transform="translate(1345,450)"/>
<path d="M0 0 C1.32 0.33 2.64 0.66 4 1 C3.67 39.28 3.34 77.56 3 117 C5.31 117 7.62 117 10 117 C10 117.33 10 117.66 10 118 C7.69 118 5.38 118 3 118 C3 118.66 3 119.32 3 120 C2.01 119.67 1.02 119.34 0 119 C0 79.73 0 40.46 0 0 Z " fill="#8B55FB" transform="translate(645,451)"/>
<path d="M0 0 C0.8903595 -0.00137466 1.78071899 -0.00274933 2.69805908 -0.00416565 C3.66191025 -0.00057037 4.62576141 0.0030249 5.61882019 0.00672913 C6.64367523 0.0065831 7.66853027 0.00643707 8.72444153 0.00628662 C12.10616688 0.00698234 15.4878369 0.01475881 18.86955261 0.02259827 C21.21653208 0.02446366 23.56351194 0.02588699 25.91049194 0.02688599 C32.08362404 0.03070163 38.25673256 0.04052381 44.42985535 0.05158997 C50.73071473 0.06182456 57.03157793 0.066388 63.33244324 0.07142639 C75.69247963 0.0821469 88.05249853 0.09921192 100.41252136 0.12025452 C100.41252136 0.78025452 100.41252136 1.44025452 100.41252136 2.12025452 C95.00316096 3.24694592 89.77257147 3.25476716 84.27629089 3.23377991 C83.27079697 3.23392593 82.26530304 3.23407196 81.2293396 3.23422241 C77.91798213 3.23352779 74.60668146 3.22575646 71.29533386 3.21791077 C68.99462413 3.21604499 66.693914 3.21462184 64.39320374 3.21362305 C58.34667356 3.20981046 52.30016751 3.19999091 46.25364685 3.18891907 C40.08004584 3.1786779 33.90644092 3.17411963 27.73283386 3.16908264 C15.62605244 3.15836751 3.51928891 3.14130619 -8.58747864 3.12025452 C-8.91747864 2.46025452 -9.24747864 1.80025452 -9.58747864 1.12025452 C-6.33533152 0.39660959 -3.32963191 -0.00398758 0 0 Z " fill="#9551FD" transform="translate(128.5874786376953,455.87974548339844)"/>
<path d="M0 0 C2 3 2 3 5 14 C-39.88 14 -84.76 14 -131 14 C-131 13.67 -131 13.34 -131 13 C-121.23183278 12.12617034 -111.53354041 11.95234072 -101.73046875 12.00390625 C-90.00370943 12.03463122 -78.28380697 11.9351881 -66.55859375 11.74609375 C-64.97865843 11.72125802 -63.39872272 11.69644731 -61.81878662 11.67166138 C-55.38635298 11.56968491 -48.953986 11.46437354 -42.52172852 11.35180664 C-38.50606897 11.28180126 -34.49034928 11.21774939 -30.47453499 11.15730476 C-28.97526451 11.13360704 -27.47602628 11.10774633 -25.97683525 11.07946587 C-16.92883069 10.90936677 -8.01378222 11.11634328 1 12 C1.16687448 9.58354218 1.16687448 9.58354218 1 7 C0.01 6.01 0.01 6.01 -1 5 C-0.625 2.375 -0.625 2.375 0 0 Z " fill="#4698F4" transform="translate(322,611)"/>
<path d="M0 0 C0.33 0 0.66 0 1 0 C1 6.6 1 13.2 1 20 C18.16 20.33 35.32 20.66 53 21 C53.495 21.99 53.495 21.99 54 23 C46.47030348 23.02526648 38.9406178 23.04283141 31.41088867 23.05493164 C28.84708243 23.0599737 26.28327909 23.06680714 23.71948242 23.07543945 C20.04344979 23.08751064 16.36745502 23.09322942 12.69140625 23.09765625 C11.53725723 23.10281754 10.38310822 23.10797882 9.19398499 23.11329651 C8.13296066 23.11337204 7.07193634 23.11344757 5.97875977 23.11352539 C4.56978172 23.11685631 4.56978172 23.11685631 3.13233948 23.12025452 C1 23 1 23 0 22 C-0.08700342 20.36527118 -0.10701063 18.72685945 -0.09765625 17.08984375 C-0.09443359 16.10048828 -0.09121094 15.11113281 -0.08789062 14.09179688 C-0.07951172 13.05087891 -0.07113281 12.00996094 -0.0625 10.9375 C-0.05798828 9.89271484 -0.05347656 8.84792969 -0.04882812 7.77148438 C-0.03699913 5.1809334 -0.02051689 2.59049441 0 0 Z " fill="#8958F8" transform="translate(388,548)"/>
<path d="M0 0 C0.99 0.495 0.99 0.495 2 1 C2.9857554 5.90933409 3.11771657 10.68857497 3.09765625 15.68359375 C3.09553383 16.73414696 3.09553383 16.73414696 3.09336853 17.80592346 C3.08782477 20.01649466 3.07528326 22.22696004 3.0625 24.4375 C3.05747771 25.94726415 3.05291609 27.45702991 3.04882812 28.96679688 C3.03787387 32.64456493 3.0206489 36.32227212 3 40 C2.01 40 1.02 40 0 40 C0 26.8 0 13.6 0 0 Z " fill="#735EFC" transform="translate(752,481)"/>
<path d="M0 0 C0.66 0.33 1.32 0.66 2 1 C1.99476318 1.87325928 1.98952637 2.74651855 1.98413086 3.64624023 C1.96712249 6.87589273 1.95456631 10.10552245 1.94506836 13.33520508 C1.9400292 14.73495228 1.93319784 16.1346942 1.92456055 17.53442383 C1.9124768 19.54245777 1.90730193 21.55052957 1.90234375 23.55859375 C1.89710693 24.76829834 1.89187012 25.97800293 1.88647461 27.22436523 C1.68224715 29.90812017 1.68224715 29.90812017 3 31 C3.04063832 32.66617115 3.042721 34.33388095 3 36 C2.34 36 1.68 36 1 36 C-0.59126567 29.42182137 -1.19342104 23.05582395 -1.1875 16.3125 C-1.18814453 15.61261963 -1.18878906 14.91273926 -1.18945312 14.19165039 C-1.13984727 9.3928472 -0.66668607 4.75213831 0 0 Z " fill="#9B52FD" transform="translate(46,524)"/>
<path d="M0 0 C3.29447181 4.94170772 3 6.58787039 3 13 C-15.15 13 -33.3 13 -52 13 C-52 12.67 -52 12.34 -52 12 C-46.54164952 11.83042391 -41.0831279 11.67010704 -35.62426758 11.51782227 C-33.77295889 11.46493692 -31.92171672 11.40966054 -30.07055664 11.35180664 C-19.63278858 11.02730182 -9.39883102 10.84724553 1 12 C1.16687448 9.58354218 1.16687448 9.58354218 1 7 C0.34 6.34 -0.32 5.68 -1 5 C-0.625 2.375 -0.625 2.375 0 0 Z " fill="#39B2FE" transform="translate(322,611)"/>
<path d="M0 0 C0.33 0 0.66 0 1 0 C1 6.6 1 13.2 1 20 C-2.17787541 21.0592918 -4.42588943 21.11458939 -7.76171875 21.09765625 C-8.87998047 21.09443359 -9.99824219 21.09121094 -11.15039062 21.08789062 C-12.31763672 21.07951172 -13.48488281 21.07113281 -14.6875 21.0625 C-15.86634766 21.05798828 -17.04519531 21.05347656 -18.25976562 21.04882812 C-21.17322789 21.03703273 -24.08658863 21.0205727 -27 21 C-27.33 20.34 -27.66 19.68 -28 19 C-24.82212459 17.9407082 -22.57411057 17.88541061 -19.23828125 17.90234375 C-18.12001953 17.90556641 -17.00175781 17.90878906 -15.84960938 17.91210938 C-14.68236328 17.92048828 -13.51511719 17.92886719 -12.3125 17.9375 C-11.13365234 17.94201172 -9.95480469 17.94652344 -8.74023438 17.95117188 C-5.82680133 17.96296715 -2.91339433 17.98090273 0 18 C0 12.06 0 6.12 0 0 Z " fill="#735FF8" transform="translate(754,550)"/>
<path d="M0 0 C0.99 0.33 1.98 0.66 3 1 C3.09908936 10.39146903 3.12998844 19.65741704 2 29 C1.34 29 0.68 29 0 29 C0 19.43 0 9.86 0 0 Z " fill="#6D63FA" transform="translate(766,450)"/>
<path d="M0 0 C0.33 0.99 0.66 1.98 1 3 C-0.3984375 4.9375 -0.3984375 4.9375 -2.375 7 C-4.71473605 9.4609176 -5.91217041 10.73651124 -7 14 C-7.66 14 -8.32 14 -9 14 C-9.12246094 14.57234375 -9.24492188 15.1446875 -9.37109375 15.734375 C-10.02762868 18.09953191 -10.93723512 20.07206797 -12.0625 22.25 C-12.42472656 22.95640625 -12.78695312 23.6628125 -13.16015625 24.390625 C-13.43730469 24.92171875 -13.71445312 25.4528125 -14 26 C-14.66 26 -15.32 26 -16 26 C-12.95269342 15.98105055 -7.2421522 7.48429103 0 0 Z " fill="#9D50FE" transform="translate(67,482)"/>
<path d="M0 0 C0.33 0 0.66 0 1 0 C1.6976874 8.14684214 2.28162626 15.88303369 1 24 C-1 22 -1 22 -1.24291992 20.07641602 C-1.23881104 19.30998779 -1.23470215 18.54355957 -1.23046875 17.75390625 C-1.22853516 16.91666016 -1.22660156 16.07941406 -1.22460938 15.21679688 C-1.21236328 14.34087891 -1.20011719 13.46496094 -1.1875 12.5625 C-1.1865332 11.25442383 -1.1865332 11.25442383 -1.18554688 9.91992188 C-1.14059434 3.42178302 -1.14059434 3.42178302 0 0 Z " fill="#3FA6FD" transform="translate(976,498)"/>
<path d="M0 0 C0.33 0 0.66 0 1 0 C1.33 3.3 1.66 6.6 2 10 C-6.625 14.125 -6.625 14.125 -10 13 C-8.35 12.67 -6.7 12.34 -5 12 C-5 11.34 -5 10.68 -5 10 C-4.360625 9.608125 -3.72125 9.21625 -3.0625 8.8125 C-0.11050849 6.21832565 -0.28669109 3.7986569 0 0 Z " fill="#5B73F8" transform="translate(849,558)"/>
<path d="M0 0 C0.66 1.32 1.32 2.64 2 4 C1.01 4.99 0.02 5.98 -1 7 C-0.67 4.69 -0.34 2.38 0 0 Z M-2 7 C-1.34 7.33 -0.68 7.66 0 8 C-0.25561323 10.3431213 -0.59270772 12.67843403 -1 15 C-1.99 15.495 -1.99 15.495 -3 16 C-2.67 13.03 -2.34 10.06 -2 7 Z " fill="#9D50FE" transform="translate(50,508)"/>
<path d="M0 0 C2.02350324 3.03525486 2.32124018 4.19426202 2.625 7.6875 C2.69976562 8.49574219 2.77453125 9.30398438 2.8515625 10.13671875 C2.90054687 10.75160156 2.94953125 11.36648438 3 12 C2.01 12.495 2.01 12.495 1 13 C0.40667939 8.62426048 -0.13827236 4.42471556 0 0 Z " fill="#9352FD" transform="translate(316,408)"/>
<path d="M0 0 C1.32 0.33 2.64 0.66 4 1 C4.33 3.31 4.66 5.62 5 8 C4.01 8.495 4.01 8.495 3 9 C2.01 6.03 1.02 3.06 0 0 Z " fill="#537BFC" transform="translate(860,535)"/>
<path d="M0 0 C0 3 0 3 -2 6 C-5.625 7.1875 -5.625 7.1875 -9 8 C-8 5 -8 5 -5.0625 3.4375 C-4.051875 2.963125 -3.04125 2.48875 -2 2 C-1.34 1.34 -0.68 0.68 0 0 Z " fill="#9551FE" transform="translate(241,450)"/>
<path d="M0 0 C2.12508244 3.18762365 2.5020163 5.26512223 3 9 C0.9375 7.3125 0.9375 7.3125 -1 5 C-0.75 2.25 -0.75 2.25 0 0 Z " fill="#41ACF7" transform="translate(322,611)"/>
<path d="M0 0 C1.65 0 3.3 0 5 0 C5 0.33 5 0.66 5 1 C3.35 1 1.7 1 0 1 C0 0.67 0 0.34 0 0 Z " fill="#5087ED" transform="translate(915,575)"/>
<path d="M0 0 C4 1 4 1 4 1 Z " fill="#8759F0" transform="translate(579,575)"/>
<path d="M0 0 C3 1 3 1 3 1 Z " fill="#40B6F0" transform="translate(1188,575)"/>
<path d="M0 0 C3 1 3 1 3 1 Z " fill="#42B5EF" transform="translate(1060,575)"/>
<path d="M0 0 C3 1 3 1 3 1 Z " fill="#45B4F1" transform="translate(1040,571)"/>
<path d="" fill="#3FBDF8" transform="translate(0,0)"/>
<path d="" fill="#3CBDFD" transform="translate(0,0)"/>
<path d="M0 0 C0.66 0 1.32 0 2 0 C1.67 0.66 1.34 1.32 1 2 C0.67 1.34 0.34 0.68 0 0 Z " fill="#9457FC" transform="translate(506,538)"/>
<path d="M0 0 C3 1 3 1 3 1 Z " fill="#905EFF" transform="translate(154,526)"/>
<path d="M0 0 C3 1 3 1 3 1 Z " fill="#945BFF" transform="translate(128,526)"/>
<path d="M0 0 C0.66 0.66 1.32 1.32 2 2 C1.34 2 0.68 2 0 2 C0 1.34 0 0.68 0 0 Z " fill="#3CBEFD" transform="translate(1191,476)"/>
<path d="" fill="#5C5B5C" transform="translate(0,0)"/>
<path d="M0 0 C2 1 2 1 2 1 Z " fill="#515153" transform="translate(1090,955)"/>
<path d="" fill="#515251" transform="translate(0,0)"/>
<path d="" fill="#5499DA" transform="translate(0,0)"/>
<path d="M0 0 C2 1 2 1 2 1 Z " fill="#7377EF" transform="translate(158,626)"/>
<path d="M0 0 C2 1 2 1 2 1 Z " fill="#796DEF" transform="translate(134,626)"/>
<path d="M0 0 C2 1 2 1 2 1 Z " fill="#8363EE" transform="translate(99,622)"/>
<path d="M0 0 C2 1 2 1 2 1 Z " fill="#41B9F0" transform="translate(1173,575)"/>
<path d="M0 0 C2 1 2 1 2 1 Z " fill="#42B6F0" transform="translate(1076,575)"/>
<path d="M0 0 C2 1 2 1 2 1 Z " fill="#4F86EE" transform="translate(912,575)"/>
<path d="M0 0 C2 1 2 1 2 1 Z " fill="#45B4F1" transform="translate(1044,572)"/>
<path d="M0 0 C2 1 2 1 2 1 Z " fill="#3ABFFC" transform="translate(1202,544)"/>
<path d="" fill="#3ABEFC" transform="translate(0,0)"/>
<path d="" fill="#3CBEFC" transform="translate(0,0)"/>
<path d="M0 0 C2 1 2 1 2 1 Z " fill="#9459FF" transform="translate(139,526)"/>
<path d="M0 0 C2 1 2 1 2 1 Z " fill="#3FBFFC" transform="translate(1412,497)"/>
<path d="M0 0 C2 1 2 1 2 1 Z " fill="#3DC1FC" transform="translate(1186,496)"/>
<path d="M0 0 C2 1 2 1 2 1 Z " fill="#3BC0FD" transform="translate(1205,479)"/>
<path d="" fill="#3ABFFD" transform="translate(0,0)"/>
<path d="M0 0 C2 1 2 1 2 1 Z " fill="#9555FF" transform="translate(579,476)"/>
<path d="M0 0 C2 1 2 1 2 1 Z " fill="#9756FF" transform="translate(572,476)"/>
<path d="" fill="#3DBEFF" transform="translate(0,0)"/>
<path d="" fill="#45B6F8" transform="translate(0,0)"/>
<path d="" fill="#40BDFA" transform="translate(0,0)"/>
<path d="M0 0 C2 1 2 1 2 1 Z " fill="#9558FF" transform="translate(240,431)"/>
<path d="" fill="#5D5E5D" transform="translate(0,0)"/>
<path d="" fill="#5C5B5C" transform="translate(0,0)"/>
<path d="" fill="#5B5C5D" transform="translate(0,0)"/>
<path d="" fill="#5B5C5B" transform="translate(0,0)"/>
<path d="" fill="#5E5C5F" transform="translate(0,0)"/>
<path d="" fill="#5C5B5C" transform="translate(0,0)"/>
<path d="" fill="#5C5B5B" transform="translate(0,0)"/>
<path d="" fill="#595B5C" transform="translate(0,0)"/>
<path d="" fill="#5C5E5C" transform="translate(0,0)"/>
<path d="" fill="#595C5B" transform="translate(0,0)"/>
<path d="" fill="#5C5C5A" transform="translate(0,0)"/>
<path d="" fill="#5A5A5B" transform="translate(0,0)"/>
<path d="" fill="#5C5C5D" transform="translate(0,0)"/>
<path d="" fill="#5C5B5B" transform="translate(0,0)"/>
<path d="" fill="#5A5B5A" transform="translate(0,0)"/>
<path d="" fill="#5B5B5B" transform="translate(0,0)"/>
<path d="" fill="#5B5B5A" transform="translate(0,0)"/>
<path d="" fill="#5B5C59" transform="translate(0,0)"/>
<path d="" fill="#5B5B5B" transform="translate(0,0)"/>
<path d="" fill="#5C5D5C" transform="translate(0,0)"/>
<path d="" fill="#5B5D5B" transform="translate(0,0)"/>
<path d="" fill="#5A5A5C" transform="translate(0,0)"/>
<path d="" fill="#60605F" transform="translate(0,0)"/>
<path d="" fill="#585A5A" transform="translate(0,0)"/>
<path d="" fill="#5B595A" transform="translate(0,0)"/>
<path d="" fill="#5B5C5C" transform="translate(0,0)"/>
<path d="" fill="#5B5A5C" transform="translate(0,0)"/>
<path d="" fill="#5C5A5B" transform="translate(0,0)"/>
<path d="" fill="#585959" transform="translate(0,0)"/>
<path d="" fill="#5A5B59" transform="translate(0,0)"/>
<path d="" fill="#5A595A" transform="translate(0,0)"/>
<path d="" fill="#58595A" transform="translate(0,0)"/>
<path d="" fill="#59585A" transform="translate(0,0)"/>
<path d="" fill="#5B5A5A" transform="translate(0,0)"/>
<path d="" fill="#585A5A" transform="translate(0,0)"/>
<path d="" fill="#5B5A58" transform="translate(0,0)"/>
<path d="" fill="#5B5B5A" transform="translate(0,0)"/>
<path d="" fill="#585959" transform="translate(0,0)"/>
<path d="" fill="#58585A" transform="translate(0,0)"/>
<path d="" fill="#5A5B59" transform="translate(0,0)"/>
<path d="" fill="#57575A" transform="translate(0,0)"/>
<path d="" fill="#565858" transform="translate(0,0)"/>
<path d="" fill="#595757" transform="translate(0,0)"/>
<path d="" fill="#575857" transform="translate(0,0)"/>
<path d="" fill="#5A585A" transform="translate(0,0)"/>
<path d="" fill="#575959" transform="translate(0,0)"/>
<path d="" fill="#575659" transform="translate(0,0)"/>
<path d="" fill="#565658" transform="translate(0,0)"/>
<path d="" fill="#5A5758" transform="translate(0,0)"/>
<path d="" fill="#585959" transform="translate(0,0)"/>
<path d="" fill="#555657" transform="translate(0,0)"/>
<path d="" fill="#565657" transform="translate(0,0)"/>
<path d="" fill="#585659" transform="translate(0,0)"/>
<path d="" fill="#575858" transform="translate(0,0)"/>
<path d="" fill="#575958" transform="translate(0,0)"/>
<path d="" fill="#575757" transform="translate(0,0)"/>
<path d="" fill="#575758" transform="translate(0,0)"/>
<path d="" fill="#565758" transform="translate(0,0)"/>
<path d="" fill="#545756" transform="translate(0,0)"/>
<path d="" fill="#575758" transform="translate(0,0)"/>
<path d="" fill="#575957" transform="translate(0,0)"/>
<path d="" fill="#545655" transform="translate(0,0)"/>
<path d="" fill="#565555" transform="translate(0,0)"/>
<path d="" fill="#555555" transform="translate(0,0)"/>
<path d="" fill="#545455" transform="translate(0,0)"/>
<path d="" fill="#515154" transform="translate(0,0)"/>
<path d="" fill="#525254" transform="translate(0,0)"/>
<path d="" fill="#555556" transform="translate(0,0)"/>
<path d="" fill="#525253" transform="translate(0,0)"/>
<path d="" fill="#525454" transform="translate(0,0)"/>
<path d="" fill="#535554" transform="translate(0,0)"/>
<path d="" fill="#535353" transform="translate(0,0)"/>
<path d="" fill="#525454" transform="translate(0,0)"/>
<path d="" fill="#525252" transform="translate(0,0)"/>
<path d="" fill="#525355" transform="translate(0,0)"/>
<path d="" fill="#535354" transform="translate(0,0)"/>
<path d="" fill="#535252" transform="translate(0,0)"/>
<path d="" fill="#535453" transform="translate(0,0)"/>
<path d="" fill="#4E4F52" transform="translate(0,0)"/>
<path d="" fill="#505151" transform="translate(0,0)"/>
<path d="" fill="#515152" transform="translate(0,0)"/>
<path d="" fill="#525253" transform="translate(0,0)"/>
<path d="" fill="#505150" transform="translate(0,0)"/>
<path d="" fill="#515252" transform="translate(0,0)"/>
<path d="" fill="#515350" transform="translate(0,0)"/>
<path d="" fill="#4C4D50" transform="translate(0,0)"/>
<path d="" fill="#4C4F4E" transform="translate(0,0)"/>
<path d="" fill="#4F4F4F" transform="translate(0,0)"/>
<path d="" fill="#4E504F" transform="translate(0,0)"/>
<path d="" fill="#4E4E4E" transform="translate(0,0)"/>
<path d="" fill="#4C4D4D" transform="translate(0,0)"/>
<path d="" fill="#4F5050" transform="translate(0,0)"/>
<path d="" fill="#4C4E4D" transform="translate(0,0)"/>
<path d="" fill="#4E4D4E" transform="translate(0,0)"/>
<path d="" fill="#4E4F4E" transform="translate(0,0)"/>
<path d="" fill="#4A494A" transform="translate(0,0)"/>
<path d="" fill="#4D4E4D" transform="translate(0,0)"/>
<path d="" fill="#484C4B" transform="translate(0,0)"/>
<path d="" fill="#4B494C" transform="translate(0,0)"/>
<path d="" fill="#4A4C4B" transform="translate(0,0)"/>
<path d="" fill="#4C4D4E" transform="translate(0,0)"/>
<path d="" fill="#4D4D4B" transform="translate(0,0)"/>
<path d="" fill="#4A4D4B" transform="translate(0,0)"/>
<path d="" fill="#4A4A4B" transform="translate(0,0)"/>
<path d="" fill="#494A4B" transform="translate(0,0)"/>
<path d="" fill="#4A4A48" transform="translate(0,0)"/>
<path d="" fill="#4C4C4B" transform="translate(0,0)"/>
<path d="" fill="#474648" transform="translate(0,0)"/>
<path d="" fill="#474948" transform="translate(0,0)"/>
<path d="" fill="#484747" transform="translate(0,0)"/>
<path d="" fill="#48484A" transform="translate(0,0)"/>
<path d="" fill="#464647" transform="translate(0,0)"/>
<path d="" fill="#484949" transform="translate(0,0)"/>
<path d="" fill="#49494C" transform="translate(0,0)"/>
<path d="" fill="#4A4A4B" transform="translate(0,0)"/>
<path d="" fill="#474845" transform="translate(0,0)"/>
<path d="" fill="#434448" transform="translate(0,0)"/>
<path d="" fill="#464747" transform="translate(0,0)"/>
<path d="" fill="#464648" transform="translate(0,0)"/>
<path d="" fill="#494749" transform="translate(0,0)"/>
<path d="" fill="#434644" transform="translate(0,0)"/>
<path d="" fill="#444645" transform="translate(0,0)"/>
<path d="" fill="#414343" transform="translate(0,0)"/>
<path d="" fill="#414142" transform="translate(0,0)"/>
<path d="" fill="#444544" transform="translate(0,0)"/>
<path d="" fill="#403E40" transform="translate(0,0)"/>
<path d="" fill="#3E3C3E" transform="translate(0,0)"/>
<path d="" fill="#424344" transform="translate(0,0)"/>
<path d="" fill="#404240" transform="translate(0,0)"/>
<path d="" fill="#3D3E3D" transform="translate(0,0)"/>
<path d="" fill="#3D3C3E" transform="translate(0,0)"/>
<path d="" fill="#3C3F3E" transform="translate(0,0)"/>
<path d="" fill="#3B3C3F" transform="translate(0,0)"/>
<path d="" fill="#3A383D" transform="translate(0,0)"/>
<path d="" fill="#3E3F3F" transform="translate(0,0)"/>
<path d="" fill="#404142" transform="translate(0,0)"/>
<path d="" fill="#393C3B" transform="translate(0,0)"/>
<path d="" fill="#3A3C3C" transform="translate(0,0)"/>
<path d="" fill="#3B3D3D" transform="translate(0,0)"/>
<path d="" fill="#3B3C3A" transform="translate(0,0)"/>
<path d="" fill="#383A39" transform="translate(0,0)"/>
<path d="" fill="#39383A" transform="translate(0,0)"/>
<path d="" fill="#353737" transform="translate(0,0)"/>
<path d="" fill="#333634" transform="translate(0,0)"/>
<path d="" fill="#353536" transform="translate(0,0)"/>
<path d="" fill="#363739" transform="translate(0,0)"/>
<path d="" fill="#333534" transform="translate(0,0)"/>
<path d="" fill="#323334" transform="translate(0,0)"/>
<path d="" fill="#33333A" transform="translate(0,0)"/>
<path d="" fill="#2E3230" transform="translate(0,0)"/>
<path d="" fill="#303033" transform="translate(0,0)"/>
<path d="" fill="#333434" transform="translate(0,0)"/>
<path d="" fill="#353938" transform="translate(0,0)"/>
<path d="" fill="#33323A" transform="translate(0,0)"/>
<path d="" fill="#2D2F2F" transform="translate(0,0)"/>
<path d="" fill="#2F2F31" transform="translate(0,0)"/>
<path d="" fill="#323534" transform="translate(0,0)"/>
<path d="" fill="#2F3531" transform="translate(0,0)"/>
<path d="" fill="#2A2E2E" transform="translate(0,0)"/>
<path d="" fill="#2D2E31" transform="translate(0,0)"/>
<path d="" fill="#33333B" transform="translate(0,0)"/>
<path d="" fill="#292C2D" transform="translate(0,0)"/>
<path d="" fill="#252B2D" transform="translate(0,0)"/>
<path d="" fill="#303336" transform="translate(0,0)"/>
<path d="" fill="#272A2C" transform="translate(0,0)"/>
<path d="" fill="#2F3637" transform="translate(0,0)"/>
<path d="" fill="#262A2C" transform="translate(0,0)"/>
<path d="" fill="#34333F" transform="translate(0,0)"/>
<path d="" fill="#333540" transform="translate(0,0)"/>
<path d="" fill="#29252A" transform="translate(0,0)"/>
<path d="" fill="#2E3737" transform="translate(0,0)"/>
<path d="" fill="#2A2A30" transform="translate(0,0)"/>
<path d="" fill="#242C2E" transform="translate(0,0)"/>
<path d="" fill="#2A2C33" transform="translate(0,0)"/>
<path d="" fill="#242C2F" transform="translate(0,0)"/>
<path d="" fill="#393947" transform="translate(0,0)"/>
<path d="" fill="#242C2F" transform="translate(0,0)"/>
<path d="" fill="#293536" transform="translate(0,0)"/>
<path d="" fill="#232D32" transform="translate(0,0)"/>
<path d="" fill="#2D2E37" transform="translate(0,0)"/>
<path d="" fill="#2B3539" transform="translate(0,0)"/>
<path d="" fill="#293437" transform="translate(0,0)"/>
<path d="" fill="#2F3039" transform="translate(0,0)"/>
<path d="" fill="#272F36" transform="translate(0,0)"/>
<path d="" fill="#3D4B57" transform="translate(0,0)"/>
<path d="" fill="#3F4154" transform="translate(0,0)"/>
<path d="" fill="#263237" transform="translate(0,0)"/>
<path d="" fill="#2F313D" transform="translate(0,0)"/>
<path d="" fill="#2B383C" transform="translate(0,0)"/>
<path d="" fill="#42455A" transform="translate(0,0)"/>
<path d="" fill="#28353B" transform="translate(0,0)"/>
<path d="" fill="#45475F" transform="translate(0,0)"/>
<path d="" fill="#494966" transform="translate(0,0)"/>
<path d="" fill="#31484D" transform="translate(0,0)"/>
<path d="" fill="#2B3B42" transform="translate(0,0)"/>
<path d="" fill="#373748" transform="translate(0,0)"/>
<path d="" fill="#2C3D48" transform="translate(0,0)"/>
<path d="" fill="#393A4D" transform="translate(0,0)"/>
<path d="" fill="#4F4F72" transform="translate(0,0)"/>
<path d="" fill="#2F404D" transform="translate(0,0)"/>
<path d="" fill="#3C3C54" transform="translate(0,0)"/>
<path d="" fill="#334953" transform="translate(0,0)"/>
<path d="" fill="#314452" transform="translate(0,0)"/>
<path d="" fill="#403F58" transform="translate(0,0)"/>
<path d="" fill="#334A56" transform="translate(0,0)"/>
<path d="" fill="#354959" transform="translate(0,0)"/>
<path d="" fill="#43415E" transform="translate(0,0)"/>
<path d="" fill="#364D60" transform="translate(0,0)"/>
<path d="" fill="#394F63" transform="translate(0,0)"/>
<path d="" fill="#3A5167" transform="translate(0,0)"/>
<path d="" fill="#4B486E" transform="translate(0,0)"/>
<path d="" fill="#3C5D6E" transform="translate(0,0)"/>
<path d="" fill="#3C566E" transform="translate(0,0)"/>
<path d="" fill="#4F4A75" transform="translate(0,0)"/>
<path d="" fill="#554E7D" transform="translate(0,0)"/>
<path d="" fill="#416B80" transform="translate(0,0)"/>
<path d="" fill="#41607F" transform="translate(0,0)"/>
<path d="" fill="#5A5288" transform="translate(0,0)"/>
<path d="" fill="#486D94" transform="translate(0,0)"/>
<path d="" fill="#50A0E1" transform="translate(0,0)"/>
<path d="" fill="#50A3E5" transform="translate(0,0)"/>
<path d="" fill="#4FA1EE" transform="translate(0,0)"/>
<path d="" fill="#6C59A7" transform="translate(0,0)"/>
<path d="" fill="#52A4E9" transform="translate(0,0)"/>
<path d="" fill="#8662EF" transform="translate(0,0)"/>
<path d="" fill="#8660F0" transform="translate(0,0)"/>
<path d="" fill="#855DD6" transform="translate(0,0)"/>
<path d="" fill="#528CD7" transform="translate(0,0)"/>
<path d="" fill="#41B4EE" transform="translate(0,0)"/>
<path d="" fill="#41B7F0" transform="translate(0,0)"/>
<path d="" fill="#3EB8F1" transform="translate(0,0)"/>
<path d="" fill="#41B8F2" transform="translate(0,0)"/>
<path d="" fill="#43B6F1" transform="translate(0,0)"/>
<path d="" fill="#40B6F0" transform="translate(0,0)"/>
<path d="" fill="#44B5F0" transform="translate(0,0)"/>
<path d="" fill="#6074EC" transform="translate(0,0)"/>
<path d="" fill="#5F70E8" transform="translate(0,0)"/>
<path d="" fill="#5E72EB" transform="translate(0,0)"/>
<path d="" fill="#6171EA" transform="translate(0,0)"/>
<path d="" fill="#518DED" transform="translate(0,0)"/>
<path d="" fill="#6075EC" transform="translate(0,0)"/>
<path d="" fill="#895BEF" transform="translate(0,0)"/>
<path d="" fill="#42B3F2" transform="translate(0,0)"/>
<path d="" fill="#8A59F3" transform="translate(0,0)"/>
<path d="" fill="#8D5CF0" transform="translate(0,0)"/>
<path d="" fill="#7364EA" transform="translate(0,0)"/>
<path d="" fill="#8C58F3" transform="translate(0,0)"/>
<path d="" fill="#8C5BF1" transform="translate(0,0)"/>
<path d="" fill="#43B9EF" transform="translate(0,0)"/>
<path d="" fill="#8D58F2" transform="translate(0,0)"/>
<path d="" fill="#5F77EC" transform="translate(0,0)"/>
<path d="" fill="#8E5AF1" transform="translate(0,0)"/>
<path d="" fill="#8369EF" transform="translate(0,0)"/>
<path d="" fill="#42B3F2" transform="translate(0,0)"/>
<path d="" fill="#41B7F2" transform="translate(0,0)"/>
<path d="" fill="#4C91F2" transform="translate(0,0)"/>
<path d="" fill="#42B9F2" transform="translate(0,0)"/>
<path d="" fill="#3DBFF9" transform="translate(0,0)"/>
<path d="" fill="#5299F3" transform="translate(0,0)"/>
<path d="" fill="#5E7DF6" transform="translate(0,0)"/>
<path d="" fill="#6A69F8" transform="translate(0,0)"/>
<path d="" fill="#3CBFFC" transform="translate(0,0)"/>
<path d="" fill="#8B64F7" transform="translate(0,0)"/>
<path d="" fill="#42B5E8" transform="translate(0,0)"/>
<path d="" fill="#3CC3FB" transform="translate(0,0)"/>
<path d="" fill="#3DC2FD" transform="translate(0,0)"/>
<path d="" fill="#40C2FC" transform="translate(0,0)"/>
<path d="" fill="#8A64F9" transform="translate(0,0)"/>
<path d="" fill="#9C5AFA" transform="translate(0,0)"/>
<path d="" fill="#3BC0FB" transform="translate(0,0)"/>
<path d="" fill="#4D90F8" transform="translate(0,0)"/>
<path d="" fill="#4F8FFB" transform="translate(0,0)"/>
<path d="" fill="#5D79FA" transform="translate(0,0)"/>
<path d="" fill="#6478F8" transform="translate(0,0)"/>
<path d="" fill="#9A5BF9" transform="translate(0,0)"/>
<path d="" fill="#4AA3FA" transform="translate(0,0)"/>
<path d="" fill="#489FFA" transform="translate(0,0)"/>
<path d="" fill="#5F72FA" transform="translate(0,0)"/>
<path d="" fill="#3DBFFC" transform="translate(0,0)"/>
<path d="" fill="#4C91FD" transform="translate(0,0)"/>
<path d="" fill="#4C8FFC" transform="translate(0,0)"/>
<path d="" fill="#9D59FB" transform="translate(0,0)"/>
<path d="" fill="#3CC3FF" transform="translate(0,0)"/>
<path d="" fill="#3CC0FA" transform="translate(0,0)"/>
<path d="" fill="#4C91FB" transform="translate(0,0)"/>
<path d="" fill="#3DC0FE" transform="translate(0,0)"/>
<path d="" fill="#3CC2FE" transform="translate(0,0)"/>
<path d="" fill="#44B6FD" transform="translate(0,0)"/>
<path d="" fill="#42B6FB" transform="translate(0,0)"/>
<path d="" fill="#3EC1FF" transform="translate(0,0)"/>
<path d="" fill="#3CC2FC" transform="translate(0,0)"/>
<path d="" fill="#41C2FD" transform="translate(0,0)"/>
<path d="" fill="#40C2FD" transform="translate(0,0)"/>
<path d="" fill="#43BFFD" transform="translate(0,0)"/>
<path d="" fill="#43B4FC" transform="translate(0,0)"/>
<path d="" fill="#6074FD" transform="translate(0,0)"/>
<path d="" fill="#41C1FB" transform="translate(0,0)"/>
<path d="" fill="#43BAFC" transform="translate(0,0)"/>
<path d="" fill="#8367FC" transform="translate(0,0)"/>
<path d="" fill="#8766FF" transform="translate(0,0)"/>
<path d="" fill="#8E60FF" transform="translate(0,0)"/>
<path d="" fill="#9060FF" transform="translate(0,0)"/>
<path d="" fill="#8E5EFF" transform="translate(0,0)"/>
<path d="" fill="#905DFF" transform="translate(0,0)"/>
<path d="" fill="#915CFF" transform="translate(0,0)"/>
<path d="" fill="#935AFF" transform="translate(0,0)"/>
<path d="" fill="#9A5DF9" transform="translate(0,0)"/>
<path d="" fill="#8269FD" transform="translate(0,0)"/>
<path d="" fill="#42C0FE" transform="translate(0,0)"/>
<path d="" fill="#41BEF6" transform="translate(0,0)"/>
<path d="" fill="#40C1FB" transform="translate(0,0)"/>
<path d="" fill="#995BFD" transform="translate(0,0)"/>
<path d="" fill="#40BFFB" transform="translate(0,0)"/>
<path d="" fill="#9759FC" transform="translate(0,0)"/>
<path d="" fill="#4F8AFD" transform="translate(0,0)"/>
<path d="" fill="#3DBFFE" transform="translate(0,0)"/>
<path d="" fill="#975AFC" transform="translate(0,0)"/>
<path d="" fill="#42C0FB" transform="translate(0,0)"/>
<path d="" fill="#8E58FF" transform="translate(0,0)"/>
<path d="" fill="#3EC2FC" transform="translate(0,0)"/>
<path d="" fill="#3EC2FD" transform="translate(0,0)"/>
<path d="" fill="#995BFC" transform="translate(0,0)"/>
<path d="" fill="#39C0FE" transform="translate(0,0)"/>
<path d="" fill="#3AC1FE" transform="translate(0,0)"/>
<path d="" fill="#3CC5FB" transform="translate(0,0)"/>
<path d="" fill="#3BC3FC" transform="translate(0,0)"/>
<path d="" fill="#3CC1FD" transform="translate(0,0)"/>
<path d="" fill="#3FC1FE" transform="translate(0,0)"/>
<path d="" fill="#9359FB" transform="translate(0,0)"/>
<path d="" fill="#9858FC" transform="translate(0,0)"/>
<path d="" fill="#9C5DF9" transform="translate(0,0)"/>
<path d="" fill="#47B9F6" transform="translate(0,0)"/>
<path d="" fill="#4D8AFE" transform="translate(0,0)"/>
<path d="" fill="#9757FC" transform="translate(0,0)"/>
<path d="" fill="#3EC1FD" transform="translate(0,0)"/>
<path d="" fill="#42BDF9" transform="translate(0,0)"/>
<path d="" fill="#3FBFFC" transform="translate(0,0)"/>
<path d="" fill="#4993FD" transform="translate(0,0)"/>
<path d="" fill="#40BFF9" transform="translate(0,0)"/>
<path d="" fill="#3DC0FB" transform="translate(0,0)"/>
<path d="" fill="#4A93FD" transform="translate(0,0)"/>
<path d="" fill="#4C92FE" transform="translate(0,0)"/>
<path d="" fill="#9253FF" transform="translate(0,0)"/>
<path d="" fill="#3DBDFD" transform="translate(0,0)"/>
<path d="" fill="#9859FD" transform="translate(0,0)"/>
<path d="" fill="#5478F8" transform="translate(0,0)"/>
<path d="" fill="#5877F9" transform="translate(0,0)"/>
<path d="" fill="#5D75FB" transform="translate(0,0)"/>
<path d="" fill="#805CFD" transform="translate(0,0)"/>
<path d="" fill="#3CBDFD" transform="translate(0,0)"/>
<path d="" fill="#3ABFFA" transform="translate(0,0)"/>
<path d="" fill="#488DFD" transform="translate(0,0)"/>
<path d="" fill="#9656FF" transform="translate(0,0)"/>
<path d="" fill="#3BBFFD" transform="translate(0,0)"/>
<path d="" fill="#41B7FE" transform="translate(0,0)"/>
<path d="" fill="#9955FF" transform="translate(0,0)"/>
<path d="" fill="#9456FF" transform="translate(0,0)"/>
<path d="" fill="#3DC0FD" transform="translate(0,0)"/>
<path d="" fill="#915DFE" transform="translate(0,0)"/>
<path d="" fill="#9956FE" transform="translate(0,0)"/>
<path d="" fill="#41BDFA" transform="translate(0,0)"/>
<path d="" fill="#9959FF" transform="translate(0,0)"/>
<path d="" fill="#3FBFFC" transform="translate(0,0)"/>
<path d="" fill="#4B9BF7" transform="translate(0,0)"/>
<path d="" fill="#41BDF9" transform="translate(0,0)"/>
<path d="" fill="#45B9EF" transform="translate(0,0)"/>
<path d="" fill="#44BFFA" transform="translate(0,0)"/>
<path d="" fill="#41BEF6" transform="translate(0,0)"/>
<path d="" fill="#518AF8" transform="translate(0,0)"/>
<path d="" fill="#3EB6F0" transform="translate(0,0)"/>
<path d="" fill="#3FBBF2" transform="translate(0,0)"/>
<path d="" fill="#3FBDF4" transform="translate(0,0)"/>
<path d="" fill="#41B9F4" transform="translate(0,0)"/>
<path d="" fill="#40BAF5" transform="translate(0,0)"/>
<path d="" fill="#43B9F1" transform="translate(0,0)"/>
<path d="" fill="#40C0F8" transform="translate(0,0)"/>
<path d="" fill="#4C93F9" transform="translate(0,0)"/>
<path d="" fill="#4E89F5" transform="translate(0,0)"/>
<path d="" fill="#6076FA" transform="translate(0,0)"/>
<path d="" fill="#716AF3" transform="translate(0,0)"/>
<path d="" fill="#815CF4" transform="translate(0,0)"/>
<path d="" fill="#865CEE" transform="translate(0,0)"/>
<path d="" fill="#3DBCF8" transform="translate(0,0)"/>
<path d="" fill="#3FBCFC" transform="translate(0,0)"/>
<path d="" fill="#3FBAFA" transform="translate(0,0)"/>
<path d="" fill="#41BEFC" transform="translate(0,0)"/>
<path d="" fill="#47B6F7" transform="translate(0,0)"/>
<path d="" fill="#43BFFA" transform="translate(0,0)"/>
<path d="" fill="#48B7F6" transform="translate(0,0)"/>
<path d="" fill="#46B7F5" transform="translate(0,0)"/>
<path d="" fill="#3FBDF9" transform="translate(0,0)"/>
<path d="" fill="#40BEFC" transform="translate(0,0)"/>
<path d="" fill="#3EBEFC" transform="translate(0,0)"/>
<path d="" fill="#3EBEFC" transform="translate(0,0)"/>
<path d="" fill="#3DBEFC" transform="translate(0,0)"/>
<path d="" fill="#4CB3EC" transform="translate(0,0)"/>
<path d="" fill="#41B7F1" transform="translate(0,0)"/>
<path d="" fill="#47B9F0" transform="translate(0,0)"/>
<path d="" fill="#42BBF2" transform="translate(0,0)"/>
<path d="" fill="#45B6EF" transform="translate(0,0)"/>
<path d="" fill="#41B6F0" transform="translate(0,0)"/>
<path d="" fill="#44B5ED" transform="translate(0,0)"/>
<path d="" fill="#40BAF1" transform="translate(0,0)"/>
<path d="" fill="#A254FE" transform="translate(0,0)"/>
<path d="" fill="#925BE4" transform="translate(0,0)"/>
<path d="" fill="#4C7DA8" transform="translate(0,0)"/>
<path d="" fill="#8556C8" transform="translate(0,0)"/>
<path d="" fill="#7E54BB" transform="translate(0,0)"/>
<path d="" fill="#7952B0" transform="translate(0,0)"/>
<path d="" fill="#446786" transform="translate(0,0)"/>
<path d="" fill="#6F4D9C" transform="translate(0,0)"/>
<path d="" fill="#466583" transform="translate(0,0)"/>
<path d="" fill="#6A4B92" transform="translate(0,0)"/>
<path d="" fill="#66488B" transform="translate(0,0)"/>
<path d="" fill="#614682" transform="translate(0,0)"/>
<path d="" fill="#3F4761" transform="translate(0,0)"/>
<path d="" fill="#5C437A" transform="translate(0,0)"/>
<path d="" fill="#426274" transform="translate(0,0)"/>
<path d="" fill="#405D6E" transform="translate(0,0)"/>
<path d="" fill="#3A5161" transform="translate(0,0)"/>
<path d="" fill="#564173" transform="translate(0,0)"/>
<path d="" fill="#53406D" transform="translate(0,0)"/>
<path d="" fill="#384957" transform="translate(0,0)"/>
<path d="" fill="#4F3D65" transform="translate(0,0)"/>
<path d="" fill="#3D5560" transform="translate(0,0)"/>
<path d="" fill="#394954" transform="translate(0,0)"/>
<path d="" fill="#354752" transform="translate(0,0)"/>
<path d="" fill="#4C3B60" transform="translate(0,0)"/>
<path d="" fill="#3A4E54" transform="translate(0,0)"/>
<path d="" fill="#34444E" transform="translate(0,0)"/>
<path d="" fill="#4A3A5B" transform="translate(0,0)"/>
<path d="" fill="#443854" transform="translate(0,0)"/>
<path d="" fill="#624580" transform="translate(0,0)"/>
<path d="" fill="#34414B" transform="translate(0,0)"/>
<path d="" fill="#473856" transform="translate(0,0)"/>
<path d="" fill="#5D4279" transform="translate(0,0)"/>
<path d="" fill="#323E47" transform="translate(0,0)"/>
<path d="" fill="#433652" transform="translate(0,0)"/>
<path d="" fill="#37454B" transform="translate(0,0)"/>
<path d="" fill="#584070" transform="translate(0,0)"/>
<path d="" fill="#323D44" transform="translate(0,0)"/>
<path d="" fill="#41374D" transform="translate(0,0)"/>
<path d="" fill="#554069" transform="translate(0,0)"/>
<path d="" fill="#303A41" transform="translate(0,0)"/>
<path d="" fill="#3F3549" transform="translate(0,0)"/>
<path d="" fill="#374147" transform="translate(0,0)"/>
<path d="" fill="#303A3E" transform="translate(0,0)"/>
<path d="" fill="#353F42" transform="translate(0,0)"/>
<path d="" fill="#353E40" transform="translate(0,0)"/>
<path d="" fill="#31383D" transform="translate(0,0)"/>
<path d="" fill="#3C3444" transform="translate(0,0)"/>
<path d="" fill="#363E41" transform="translate(0,0)"/>
<path d="" fill="#30383B" transform="translate(0,0)"/>
<path d="" fill="#3A3441" transform="translate(0,0)"/>
<path d="" fill="#363B3C" transform="translate(0,0)"/>
<path d="" fill="#313839" transform="translate(0,0)"/>
<path d="" fill="#39343E" transform="translate(0,0)"/>
<path d="" fill="#373D3F" transform="translate(0,0)"/>
<path d="" fill="#373B3C" transform="translate(0,0)"/>
<path d="" fill="#34373A" transform="translate(0,0)"/>
<path d="" fill="#39343D" transform="translate(0,0)"/>
<path d="" fill="#313538" transform="translate(0,0)"/>
<path d="" fill="#373B3C" transform="translate(0,0)"/>
<path d="" fill="#363239" transform="translate(0,0)"/>
<path d="" fill="#3A3C3C" transform="translate(0,0)"/>
<path d="" fill="#333737" transform="translate(0,0)"/>
<path d="" fill="#383A3B" transform="translate(0,0)"/>
<path d="" fill="#343737" transform="translate(0,0)"/>
<path d="" fill="#38343B" transform="translate(0,0)"/>
<path d="" fill="#343837" transform="translate(0,0)"/>
<path d="" fill="#443F47" transform="translate(0,0)"/>
<path d="" fill="#363938" transform="translate(0,0)"/>
<path d="" fill="#39373B" transform="translate(0,0)"/>
<path d="" fill="#3A393A" transform="translate(0,0)"/>
<path d="" fill="#3A393A" transform="translate(0,0)"/>
<path d="" fill="#433F47" transform="translate(0,0)"/>
<path d="" fill="#373A3A" transform="translate(0,0)"/>
<path d="" fill="#3B383B" transform="translate(0,0)"/>
<path d="" fill="#3E4040" transform="translate(0,0)"/>
<path d="" fill="#3A393A" transform="translate(0,0)"/>
<path d="" fill="#3D3A3C" transform="translate(0,0)"/>
<path d="" fill="#3F3F40" transform="translate(0,0)"/>
<path d="" fill="#444146" transform="translate(0,0)"/>
<path d="" fill="#3B3D3D" transform="translate(0,0)"/>
<path d="" fill="#3D3B3D" transform="translate(0,0)"/>
<path d="" fill="#414241" transform="translate(0,0)"/>
<path d="" fill="#404140" transform="translate(0,0)"/>
<path d="" fill="#3E3E3D" transform="translate(0,0)"/>
<path d="" fill="#464447" transform="translate(0,0)"/>
<path d="" fill="#3C3F3E" transform="translate(0,0)"/>
<path d="" fill="#3E3D3E" transform="translate(0,0)"/>
<path d="" fill="#474447" transform="translate(0,0)"/>
<path d="" fill="#3D403F" transform="translate(0,0)"/>
<path d="" fill="#413D41" transform="translate(0,0)"/>
<path d="" fill="#414242" transform="translate(0,0)"/>
<path d="" fill="#3F4242" transform="translate(0,0)"/>
<path d="" fill="#454545" transform="translate(0,0)"/>
<path d="" fill="#464745" transform="translate(0,0)"/>
<path d="" fill="#474748" transform="translate(0,0)"/>
<path d="" fill="#444645" transform="translate(0,0)"/>
<path d="" fill="#4A494A" transform="translate(0,0)"/>
<path d="" fill="#434544" transform="translate(0,0)"/>
<path d="" fill="#454746" transform="translate(0,0)"/>
<path d="" fill="#494B49" transform="translate(0,0)"/>
<path d="" fill="#454544" transform="translate(0,0)"/>
<path d="" fill="#494A49" transform="translate(0,0)"/>
<path d="" fill="#454745" transform="translate(0,0)"/>
<path d="" fill="#474549" transform="translate(0,0)"/>
<path d="" fill="#49484A" transform="translate(0,0)"/>
<path d="" fill="#494A49" transform="translate(0,0)"/>
<path d="" fill="#464646" transform="translate(0,0)"/>
<path d="" fill="#494C4A" transform="translate(0,0)"/>
<path d="" fill="#4F504F" transform="translate(0,0)"/>
<path d="" fill="#454747" transform="translate(0,0)"/>
<path d="" fill="#484749" transform="translate(0,0)"/>
<path d="" fill="#464849" transform="translate(0,0)"/>
<path d="" fill="#4A494B" transform="translate(0,0)"/>
<path d="" fill="#4D4D4C" transform="translate(0,0)"/>
<path d="" fill="#4A4B4A" transform="translate(0,0)"/>
<path d="" fill="#505050" transform="translate(0,0)"/>
<path d="" fill="#494A49" transform="translate(0,0)"/>
<path d="" fill="#545353" transform="translate(0,0)"/>
<path d="" fill="#484A4A" transform="translate(0,0)"/>
<path d="" fill="#4C4B4C" transform="translate(0,0)"/>
<path d="" fill="#4B4C4A" transform="translate(0,0)"/>
<path d="" fill="#4F514F" transform="translate(0,0)"/>
<path d="" fill="#515152" transform="translate(0,0)"/>
<path d="" fill="#4A4D4A" transform="translate(0,0)"/>
<path d="" fill="#4E4D4F" transform="translate(0,0)"/>
<path d="" fill="#525252" transform="translate(0,0)"/>
<path d="" fill="#515151" transform="translate(0,0)"/>
<path d="" fill="#494C49" transform="translate(0,0)"/>
<path d="" fill="#555756" transform="translate(0,0)"/>
<path d="" fill="#535354" transform="translate(0,0)"/>
<path d="" fill="#4C4D4C" transform="translate(0,0)"/>
<path d="" fill="#504F51" transform="translate(0,0)"/>
<path d="" fill="#525253" transform="translate(0,0)"/>
<path d="" fill="#515150" transform="translate(0,0)"/>
<path d="" fill="#515152" transform="translate(0,0)"/>
<path d="" fill="#575858" transform="translate(0,0)"/>
<path d="" fill="#565556" transform="translate(0,0)"/>
<path d="" fill="#4D4F4F" transform="translate(0,0)"/>
<path d="" fill="#535254" transform="translate(0,0)"/>
<path d="" fill="#555455" transform="translate(0,0)"/>
<path d="" fill="#565757" transform="translate(0,0)"/>
<path d="" fill="#505050" transform="translate(0,0)"/>
<path d="" fill="#50504D" transform="translate(0,0)"/>
<path d="" fill="#4F514F" transform="translate(0,0)"/>
<path d="" fill="#585658" transform="translate(0,0)"/>
<path d="" fill="#4E5150" transform="translate(0,0)"/>
<path d="" fill="#545254" transform="translate(0,0)"/>
<path d="" fill="#565556" transform="translate(0,0)"/>
<path d="" fill="#565756" transform="translate(0,0)"/>
<path d="" fill="#5A595A" transform="translate(0,0)"/>
<path d="" fill="#505250" transform="translate(0,0)"/>
<path d="" fill="#565657" transform="translate(0,0)"/>
<path d="" fill="#575759" transform="translate(0,0)"/>
<path d="" fill="#5A5B5A" transform="translate(0,0)"/>
<path d="" fill="#575757" transform="translate(0,0)"/>
<path d="" fill="#525556" transform="translate(0,0)"/>
<path d="" fill="#525452" transform="translate(0,0)"/>
<path d="" fill="#575957" transform="translate(0,0)"/>
<path d="" fill="#525353" transform="translate(0,0)"/>
<path d="" fill="#585759" transform="translate(0,0)"/>
<path d="" fill="#555556" transform="translate(0,0)"/>
<path d="" fill="#5B5B5A" transform="translate(0,0)"/>
<path d="" fill="#555756" transform="translate(0,0)"/>
<path d="" fill="#595A59" transform="translate(0,0)"/>
<path d="" fill="#5E5C5D" transform="translate(0,0)"/>
<path d="" fill="#535554" transform="translate(0,0)"/>
<path d="" fill="#59595B" transform="translate(0,0)"/>
<path d="" fill="#5A5A5B" transform="translate(0,0)"/>
<path d="" fill="#545656" transform="translate(0,0)"/>
<path d="" fill="#5A5A5B" transform="translate(0,0)"/>
<path d="" fill="#5E5D61" transform="translate(0,0)"/>
<path d="" fill="#575958" transform="translate(0,0)"/>
<path d="" fill="#585756" transform="translate(0,0)"/>
</svg>
